<svg xmlns="http://www.w3.org/2000/svg" version="1.1" xmlns:xlink="http://www.w3.org/1999/xlink" xmlns:svgjs="http://svgjs.dev/svgjs" width="2000" height="717" viewBox="0 0 2000 717"><g transform="matrix(1,0,0,1,-1.2107002322454719,0.5278432304228886)"><svg viewBox="0 0 396 142" data-background-color="#f9f7f4" preserveAspectRatio="xMidYMid meet" height="717" width="2000" xmlns="http://www.w3.org/2000/svg" xmlns:xlink="http://www.w3.org/1999/xlink"><g id="tight-bounds" transform="matrix(1,0,0,1,0.24028135401545114,-0.10442540067404593)"><svg viewBox="0 0 395.52 142.20896339052075" height="142.20896339052075" width="395.52"><g><svg viewBox="0 0 395.52 142.20896339052075" height="142.20896339052075" width="395.52"><g><svg viewBox="0 0 395.52 142.20896339052075" height="142.20896339052075" width="395.52"><g><svg viewBox="0 0 395.52 142.20896339052075" height="142.20896339052075" width="395.52"><g id="textblocktransform"><svg viewBox="0 0 395.52 142.20896339052075" height="142.20896339052075" width="395.52" id="textblock"><g><svg viewBox="0 0 395.52 142.20896339052075" height="142.20896339052075" width="395.52"><g transform="matrix(1,0,0,1,0,0)"><svg width="395.52" viewBox="-9.073622789985449e-7 0.00003999999998495485 140.51807090736227 50.52314000000002" height="142.20896339052075" data-palette-color="#ff5a00"><g class="wordmark-text-0" data-fill-palette-color="primary" id="text-0"><path d="M21.431 8.826v0c0.07 0.223 0.089 0.391 0.056 0.507-0.031 0.122-0.112 0.255-0.241 0.401v0c-0.244 0.357-0.402 0.564-0.475 0.622-0.066 0.056-0.121 0.126-0.164 0.209v0c-0.143 0.122-0.286 0.178-0.43 0.167-0.143-0.011-0.268-0.017-0.373-0.018v0c-0.09-0.042-0.161-0.124-0.214-0.247-0.059-0.121-0.115-0.208-0.167-0.262v0c-0.03-0.207-0.008-0.392 0.066-0.556 0.074-0.163 0.171-0.334 0.29-0.511v0c0.208-0.248 0.493-0.411 0.852-0.489 0.366-0.081 0.633-0.022 0.8 0.177zM8.236 23.499l-0.058-0.517c0.113-0.106 0.221-0.22 0.322-0.342 0.103-0.116 0.234-0.2 0.393-0.25v0c0.388-0.122 0.69-0.228 0.906-0.318 0.223-0.091 0.44-0.079 0.651 0.036v0c0.36 0.453 0.538 0.819 0.536 1.1 0 0.287 0.008 0.567 0.025 0.841v0c-0.433 0.311-0.823 0.504-1.17 0.579-0.347 0.075-0.667 0.036-0.96-0.116v0c-0.06-0.191-0.176-0.357-0.346-0.499-0.171-0.142-0.27-0.313-0.299-0.514zM10.558 25.471l0.39-0.291c0.36 0.033 0.581 0.124 0.663 0.274v0c0.176 0.336 0.244 0.552 0.205 0.648-0.037 0.103-0.078 0.196-0.122 0.28v0c-0.11 0.315-0.338 0.491-0.682 0.529v0c-0.125-0.065-0.277-0.157-0.454-0.276-0.184-0.117-0.283-0.264-0.296-0.441v0c-0.05-0.159-0.02-0.284 0.091-0.375 0.113-0.085 0.181-0.201 0.205-0.348zM26.748 43.64v0c-0.299-0.15-0.553-0.388-0.76-0.714v0c0.023-0.147 0.033-0.283 0.029-0.407-0.002-0.118 0.005-0.271 0.023-0.459v0c0.057-0.263 0.218-0.471 0.484-0.624v0c0.064-0.02 0.234-0.067 0.512-0.141 0.279-0.067 0.464-0.08 0.554-0.038v0c0.273 0.089 0.426 0.352 0.458 0.788 0.031 0.431-0.011 0.751-0.126 0.963v0c-0.119 0.177-0.284 0.317-0.497 0.419-0.217 0.11-0.443 0.182-0.677 0.213zM29.03 45.154v0c0.249 0.236 0.408 0.406 0.475 0.51 0.068 0.104 0.127 0.236 0.177 0.395v0c-0.172 0.341-0.268 0.567-0.289 0.679-0.014 0.109-0.047 0.207-0.096 0.292v0c-0.149 0.082-0.242 0.174-0.28 0.277-0.039 0.096-0.144 0.154-0.312 0.173v0c-0.122-0.031-0.242-0.07-0.362-0.117-0.121-0.053-0.256-0.091-0.403-0.114v0c-0.082-0.149-0.162-0.291-0.24-0.427-0.078-0.136-0.157-0.331-0.237-0.586v0c0.031-0.122 0.08-0.245 0.145-0.371 0.065-0.125 0.172-0.229 0.321-0.311v0c0.242-0.251 0.452-0.352 0.628-0.303 0.17 0.051 0.328 0.019 0.473-0.097zM25.497 16.823v0c-0.535 0.099-1.035 0.222-1.498 0.368-0.47 0.149-0.926 0.31-1.368 0.484v0c-0.084-0.044-0.189-0.045-0.316-0.005-0.127 0.04-0.238 0.023-0.331-0.052v0c-0.282 0.124-0.469 0.208-0.561 0.25-0.089 0.049-0.187 0.073-0.292 0.071v0c-0.175 0.02-0.337 0.019-0.484-0.004-0.147-0.023-0.303-0.009-0.469 0.043v0c-0.34 0.142-0.675 0.255-1.005 0.338-0.322 0.088-0.635 0.214-0.939 0.38v0c-0.186 0.408-0.335 0.665-0.448 0.771v0c-0.035 0.333-0.065 0.625-0.09 0.878-0.023 0.259 0.031 0.542 0.163 0.85v0c0.084 0.155 0.168 0.289 0.253 0.403 0.091 0.111 0.162 0.246 0.212 0.405v0c0.042 0.134 0.062 0.253 0.061 0.358-0.002 0.105 0.013 0.206 0.042 0.301v0c0.05 0.159 0.109 0.291 0.177 0.395 0.068 0.104 0.122 0.22 0.162 0.348v0c0.114 0.251 0.181 0.495 0.201 0.733 0.026 0.237 0.075 0.469 0.146 0.699v0c0.04 0.127 0.062 0.253 0.067 0.377 0.002 0.118 0.025 0.244 0.067 0.377v0c0.089 0.391 0.194 0.781 0.316 1.169 0.122 0.388 0.186 0.756 0.192 1.104v0c0.216 0.463 0.314 0.841 0.295 1.134-0.015 0.284 0.019 0.557 0.1 0.817v0c0.05 0.159 0.119 0.322 0.208 0.491 0.088 0.168 0.109 0.346 0.064 0.535v0c0.174 0.441 0.322 0.8 0.444 1.076 0.124 0.282 0.273 0.644 0.448 1.086v0c0.14 0.2 0.263 0.445 0.368 0.733 0.109 0.28 0.133 0.556 0.072 0.827v0c-0.113 0.637-0.041 1.198 0.217 1.683v0c0.082 0.149 0.168 0.279 0.259 0.39 0.085 0.113 0.153 0.252 0.205 0.417v0c0.03 0.095 0.062 0.197 0.097 0.305 0.036 0.114 0.106 0.225 0.209 0.333v0c0.308 0.399 0.492 0.75 0.553 1.052 0.059 0.296 0.161 0.564 0.306 0.805v0c-0.013 0.179 0.019 0.337 0.097 0.473 0.078 0.136 0.105 0.278 0.082 0.425v0c-0.003 0.567 0.105 1.03 0.322 1.387 0.222 0.349 0.396 0.613 0.522 0.79v0c0.082 0.149 0.133 0.29 0.155 0.423 0.027 0.131 0.078 0.258 0.152 0.382v0c0.1 0.318 0.162 0.491 0.185 0.518 0.029 0.026 0.049 0.055 0.058 0.087v0c0.03 0.207 0.06 0.446 0.09 0.716 0.038 0.275 0.087 0.507 0.147 0.698v0c0.154 0.378 0.223 0.629 0.206 0.753-0.008 0.128 0.002 0.24 0.033 0.336v0c0.122 0.388 0.168 0.597 0.135 0.628-0.028 0.023-0.063 0.076-0.107 0.16v0c-0.045 0.189-0.084 0.344-0.115 0.466-0.033 0.115-0.12 0.23-0.258 0.344v0c-0.02 0.181-0.074 0.32-0.162 0.418-0.094 0.1-0.178 0.2-0.251 0.299v0c-0.137 0.008-0.24 0.048-0.309 0.119-0.067 0.077-0.142 0.094-0.225 0.05v0c-0.279 0.333-0.439 0.558-0.479 0.675-0.033 0.115-0.088 0.22-0.163 0.314v0c-0.264 0.048-0.507 0.066-0.729 0.052-0.217-0.022-0.447 0.022-0.691 0.134v0c-0.356 0.112-0.593 0.205-0.71 0.277-0.123 0.074-0.237 0.057-0.341-0.05v0c-0.585-0.06-1.015-0.137-1.29-0.233-0.273-0.089-0.433-0.265-0.481-0.529v0c-0.186-0.123-0.323-0.304-0.412-0.541-0.095-0.236-0.238-0.376-0.427-0.421v0c-0.156-0.161-0.274-0.315-0.356-0.465v0c-0.009-0.249-0.07-0.443-0.184-0.581-0.114-0.139-0.159-0.338-0.136-0.597v0c-0.1-0.318-0.23-0.64-0.389-0.968-0.151-0.323-0.145-0.615 0.017-0.876v0c0.047-0.294 0.017-0.498-0.088-0.611v0c0.028-0.463 0.104-0.865 0.228-1.205 0.121-0.346 0.138-0.715 0.049-1.106v0c0.051-0.303 0.067-0.619 0.047-0.948-0.014-0.331-0.087-0.651-0.219-0.959v0c0.085-0.174 0.077-0.332-0.024-0.475-0.095-0.145-0.136-0.31-0.125-0.495v0c-0.246-0.447-0.399-0.786-0.458-1.019-0.051-0.229-0.139-0.484-0.263-0.767v0c-0.134-0.202-0.227-0.411-0.281-0.624-0.047-0.216-0.095-0.456-0.143-0.72v0c-0.176-0.336-0.279-0.684-0.309-1.046-0.024-0.363-0.139-0.708-0.348-1.033v0c0.013-0.179-0.023-0.37-0.107-0.574-0.079-0.206-0.174-0.431-0.287-0.675v0c-0.062-0.197-0.108-0.396-0.136-0.597-0.03-0.207-0.092-0.348-0.186-0.424v0c0.023-0.147-0.024-0.352-0.142-0.616-0.118-0.263-0.223-0.485-0.315-0.666v0c-0.009-0.249-0.046-0.478-0.112-0.688-0.066-0.21-0.103-0.436-0.11-0.678v0c-0.084-0.044-0.128-0.152-0.134-0.325-0.001-0.181 0.02-0.314 0.064-0.398v0c-0.017-0.274-0.068-0.548-0.155-0.821-0.086-0.273-0.139-0.55-0.157-0.831v0c-0.017-0.274 0.001-0.528 0.053-0.762 0.054-0.227 0.094-0.467 0.119-0.719v0c-0.106-0.113-0.192-0.219-0.258-0.317-0.068-0.104-0.149-0.194-0.242-0.27v0c-0.288-0.58-0.589-1.079-0.903-1.497-0.305-0.414-0.465-0.919-0.478-1.517v0c-0.186-0.368-0.317-0.672-0.394-0.914-0.076-0.242-0.124-0.447-0.142-0.615v0c-0.281-0.338-0.512-0.513-0.69-0.527-0.185-0.011-0.335-0.087-0.449-0.225v0c-0.181 0.092-0.389 0.13-0.625 0.113-0.234-0.01-0.467 0.004-0.699 0.043v0c-0.431 0.206-0.88 0.39-1.347 0.551-0.458 0.166-0.862 0.426-1.211 0.78v0c-0.043 0.195-0.177 0.381-0.401 0.557v0c-0.117 0.317-0.245 0.64-0.386 0.971-0.149 0.327-0.336 0.63-0.561 0.911v0c-0.115-0.033-0.237-0.03-0.364 0.01-0.134 0.042-0.258 0.046-0.374 0.013v0c-0.244 0.112-0.545 0.189-0.902 0.233-0.363 0.045-0.649-0.04-0.856-0.254v0c-0.35-0.001-0.621-0.129-0.813-0.383v0c-0.304-0.079-0.527-0.229-0.666-0.451-0.14-0.222-0.318-0.389-0.536-0.502v0c-0.164-0.298-0.304-0.631-0.421-0.999-0.118-0.375-0.218-0.69-0.298-0.944v0c0.065-0.125 0.071-0.25 0.019-0.373-0.061-0.127-0.051-0.239 0.031-0.335v0c-0.04-0.127-0.058-0.261-0.054-0.403 0.009-0.15 0.004-0.309-0.015-0.477v0c-0.028-0.201-0.008-0.358 0.062-0.471 0.071-0.106 0.102-0.231 0.091-0.375v0c0.338-0.281 0.618-0.545 0.841-0.789 0.221-0.252 0.522-0.507 0.901-0.767v0c0.194-0.271 0.422-0.5 0.685-0.688 0.254-0.192 0.486-0.409 0.697-0.65v0c0.274-0.017 0.516 0.05 0.724 0.201 0.206 0.145 0.452 0.224 0.736 0.24v0c0.115 0.033 0.222 0.028 0.32-0.017 0.089-0.049 0.187-0.073 0.292-0.072v0c0.074 0.012 0.166 0.028 0.277 0.049 0.111 0.021 0.244 0.042 0.398 0.063v0c0.348-0.005 0.674-0.003 0.977 0.007 0.303 0.009 0.601 0.076 0.892 0.2v0c0.306-0.027 0.534-0.057 0.684-0.09 0.152-0.027 0.308-0.066 0.467-0.116v0c0.169-0.018 0.357-0.043 0.564-0.073 0.201-0.028 0.417-0.062 0.65-0.1v0c0.102-0.032 0.195-0.079 0.281-0.141 0.085-0.062 0.186-0.076 0.301-0.043v0c0.241-0.146 0.463-0.261 0.667-0.347 0.199-0.077 0.409-0.167 0.627-0.271v0c0.904-0.39 1.804-0.674 2.699-0.852v0c0.44-0.069 0.73-0.136 0.869-0.201 0.136-0.057 0.286-0.111 0.452-0.164v0c0.191-0.06 0.377-0.112 0.559-0.155 0.184-0.037 0.387-0.091 0.61-0.161v0c0.692-0.044 1.229-0.171 1.61-0.383 0.376-0.203 0.744-0.291 1.101-0.263v0c0.134-0.042 0.3-0.102 0.5-0.179 0.204-0.085 0.388-0.154 0.553-0.206v0c0.351-0.216 0.71-0.451 1.077-0.707 0.358-0.26 0.685-0.541 0.982-0.845v0c0.766 0.08 1.384 0.22 1.853 0.422 0.471 0.208 0.851 0.602 1.138 1.182v0c0.214 0.212 0.372 0.48 0.475 0.805 0.102 0.324 0.18 0.635 0.231 0.933v0c0.039 0.344 0.012 0.646-0.081 0.906-0.095 0.254-0.189 0.521-0.281 0.802v0c-0.107 0.104-0.188 0.234-0.244 0.392-0.055 0.157-0.151 0.296-0.288 0.416v0c-0.03 0.149-0.103 0.284-0.218 0.404-0.12 0.129-0.202 0.235-0.246 0.319z" fill="#ff5a00" data-fill-palette-color="primary"></path><path d="M40.531 15.26l-0.017-0.353c0.066-0.189 0.145-0.394 0.239-0.616 0.1-0.223 0.215-0.435 0.346-0.637v0c0.118-0.091 0.281-0.179 0.489-0.266 0.206-0.094 0.417-0.161 0.633-0.203 0.216-0.041 0.399-0.026 0.548 0.047 0.15 0.073 0.247 0.228 0.293 0.464v0c-0.003 0.34-0.065 0.634-0.188 0.881-0.122 0.247-0.269 0.476-0.439 0.685v0c-0.256 0.083-0.437 0.219-0.542 0.409-0.1 0.189-0.28 0.308-0.543 0.358v0c-0.496-0.075-0.769-0.331-0.819-0.769zM44.629 15.656v0c-0.195-0.098-0.301-0.241-0.316-0.428-0.021-0.179 0.01-0.338 0.092-0.476 0.076-0.137 0.202-0.239 0.379-0.307 0.171-0.067 0.353-0.051 0.548 0.048v0c0.259 0.466 0.275 0.782 0.05 0.947-0.226 0.166-0.477 0.237-0.753 0.216zM46.299 35.425v0c0.19-0.104 0.303-0.245 0.336-0.421 0.034-0.176 0.084-0.359 0.15-0.548v0c0.121-0.607 0.128-1.104 0.02-1.49-0.109-0.393-0.107-0.753 0.007-1.081v0c0.002-0.346 0.015-0.539 0.042-0.578v0c-0.168-0.348-0.284-0.685-0.347-1.013-0.064-0.334-0.115-0.687-0.152-1.06v0c-0.052-0.092-0.098-0.192-0.139-0.3-0.042-0.114-0.034-0.211 0.026-0.29v0c-0.189-0.242-0.326-0.552-0.413-0.929-0.092-0.376-0.089-0.675 0.012-0.898v0c-0.092-0.091-0.134-0.205-0.127-0.342 0.014-0.138-0.011-0.269-0.075-0.393v0c-0.02-0.105-0.056-0.203-0.108-0.295-0.052-0.092-0.087-0.187-0.105-0.285v0c-0.031-0.164-0.038-0.342-0.021-0.536 0.017-0.193-0.078-0.372-0.286-0.536v0c-0.078-0.229-0.134-0.436-0.17-0.619-0.034-0.177-0.113-0.325-0.238-0.443v0c-0.055-0.465-0.125-0.743-0.211-0.835v0c-0.436-0.29-0.709-0.546-0.819-0.77-0.109-0.217-0.229-0.397-0.358-0.542v0c-0.175-0.381-0.296-0.659-0.364-0.836-0.068-0.177-0.164-0.305-0.287-0.383v0c0.061-0.249 0.051-0.495-0.03-0.738-0.087-0.241-0.065-0.48 0.067-0.715v0c0.053-0.078 0.132-0.161 0.237-0.249 0.099-0.087 0.188-0.189 0.267-0.306v0c0.178-0.17 0.318-0.309 0.42-0.416 0.095-0.106 0.254-0.215 0.477-0.326v0c0.15 0.073 0.294 0.063 0.432-0.032 0.132-0.093 0.286-0.14 0.462-0.139v0c0.164-0.031 0.317-0.027 0.46 0.013 0.143 0.04 0.32 0.058 0.529 0.052v0c0.171 0.008 0.329 0.032 0.473 0.072 0.15 0.039 0.34 0.037 0.568-0.007v0c0.156 0.106 0.3 0.146 0.431 0.121 0.138-0.026 0.297-0.006 0.48 0.061v0c0.261 0.12 0.44 0.293 0.537 0.518 0.096 0.219 0.209 0.489 0.339 0.811v0c0.24 0.368 0.361 0.593 0.363 0.673-0.003 0.089 0.034 0.16 0.112 0.213v0c0.031 0.164 0.054 0.316 0.067 0.456 0.005 0.135 0.057 0.278 0.153 0.429v0c-0.008 0.314-0.013 0.641-0.016 0.98-0.002 0.346 0.006 0.654 0.024 0.922v0c-0.184 0.314-0.27 0.503-0.257 0.569v0c-0.146 0.3-0.213 0.482-0.201 0.547 0.014 0.072-0.006 0.147-0.059 0.225v0c-0.047 0.111-0.062 0.209-0.045 0.294 0.015 0.079 0.002 0.19-0.038 0.333v0c-0.067 0.393-0.077 0.714-0.029 0.963 0.048 0.249 0.061 0.494 0.039 0.736v0c0.233 0.505 0.396 1.041 0.491 1.606 0.088 0.567 0.334 1.002 0.738 1.304v0c0.089 0.465 0.137 0.714 0.143 0.747v0c0.187 0.446 0.289 0.837 0.307 1.173 0.012 0.344 0.036 0.699 0.072 1.066v0c0.033 0.17 0.017 0.319-0.047 0.446-0.056 0.133-0.055 0.262 0.003 0.387v0c0.078 0.229 0.218 0.342 0.42 0.336 0.209-0.006 0.379 0.063 0.509 0.209v0c0.045 0.059 0.088 0.156 0.127 0.291 0.045 0.127 0.099 0.269 0.163 0.427v0c0.175 0.381 0.336 0.815 0.484 1.302 0.141 0.489 0.321 0.95 0.54 1.383v0c0.059 0.097 0.121 0.191 0.186 0.28 0.071 0.088 0.149 0.175 0.233 0.261v0c0.091 0.118 0.183 0.247 0.277 0.385 0.094 0.138 0.184 0.25 0.268 0.335v0c0.202 0.131 0.398 0.307 0.59 0.529 0.198 0.22 0.323 0.464 0.375 0.732v0c0.011 0.235-0.003 0.479-0.044 0.731-0.035 0.244-0.069 0.454-0.103 0.631v0c-0.23 0.254-0.432 0.51-0.606 0.768-0.176 0.251-0.437 0.447-0.783 0.588v0c-0.1 0.189-0.284 0.309-0.552 0.36-0.262 0.05-0.478 0.092-0.649 0.124v0c-0.248-0.054-0.483-0.114-0.706-0.18-0.215-0.061-0.404-0.16-0.567-0.299v0c-0.142-0.21-0.248-0.353-0.316-0.428-0.062-0.076-0.122-0.16-0.18-0.25v0c-0.109-0.217-0.185-0.433-0.226-0.649-0.041-0.216-0.16-0.39-0.355-0.523v0c-0.109-0.393-0.205-0.626-0.287-0.699-0.081-0.066-0.124-0.204-0.13-0.412v0c-0.212 0.523-0.386 0.875-0.52 1.056-0.135 0.182-0.288 0.374-0.46 0.577v0c-0.579 0.559-1.133 0.923-1.664 1.093-0.537 0.171-1.007 0.38-1.407 0.626v0c-0.176-0.034-0.333-0.004-0.472 0.09-0.132 0.093-0.286 0.14-0.462 0.14v0c-0.151 0.097-0.394 0.177-0.727 0.241-0.327 0.063-0.639 0.139-0.934 0.23v0c-0.222 0.083-0.449 0.137-0.681 0.161-0.239 0.026-0.49 0.063-0.753 0.113v0c-0.138 0.026-0.275 0.073-0.411 0.14-0.144 0.062-0.285 0.089-0.422 0.081v0c-0.105 0.02-0.236 0.008-0.394-0.036-0.163-0.037-0.327-0.039-0.49-0.008v0c-0.183-0.033-0.344-0.06-0.484-0.081-0.141-0.027-0.26-0.117-0.357-0.267v0c-0.17 0.033-0.311 0.026-0.421-0.021-0.112-0.053-0.223-0.103-0.334-0.15v0c-0.097-0.151-0.255-0.25-0.474-0.296-0.211-0.041-0.366-0.14-0.465-0.298v0c-0.287-0.047-0.522-0.155-0.703-0.324-0.188-0.168-0.397-0.318-0.626-0.45v0c-0.141-0.346-0.284-0.685-0.429-1.017-0.153-0.337-0.339-0.638-0.56-0.901v0c0.034-0.176 0.015-0.363-0.056-0.56-0.07-0.19-0.088-0.373-0.054-0.549v0c-0.209-0.204-0.342-0.491-0.399-0.86-0.049-0.364-0.067-0.686-0.053-0.968v0c-0.036-0.366-0.093-0.576-0.172-0.629v0c0.033-0.183 0.06-0.361 0.081-0.535 0.014-0.172-0.004-0.393-0.055-0.661v0c0.062-0.385 0.094-0.751 0.095-1.097 0.008-0.348 0.085-0.671 0.231-0.971v0c-0.052-0.092-0.046-0.205 0.017-0.339 0.056-0.133 0.042-0.242-0.043-0.328v0c0.053-0.078 0.096-0.171 0.13-0.28 0.027-0.107 0.067-0.2 0.12-0.277v0c0.046-0.151 0.075-0.279 0.089-0.384 0.014-0.104 0.015-0.189 0.002-0.255v0c0.001-0.17-0.026-0.311-0.081-0.422-0.055-0.112-0.092-0.216-0.111-0.315v0c-0.122-0.459-0.218-0.783-0.288-0.973-0.078-0.195-0.133-0.375-0.164-0.539v0c-0.089-0.465-0.124-0.791-0.106-0.977 0.017-0.193-0.056-0.346-0.22-0.457v0c-0.03-0.334-0.079-0.589-0.147-0.766-0.068-0.177-0.082-0.337-0.041-0.481v0c-0.058-0.125-0.124-0.258-0.199-0.4-0.081-0.141-0.099-0.266-0.052-0.377v0c-0.097-0.151-0.178-0.309-0.243-0.472-0.064-0.157-0.161-0.309-0.291-0.454v0c-0.215-0.237-0.463-0.363-0.744-0.376-0.274-0.015-0.604-0.037-0.99-0.065v0c-0.195-0.132-0.437-0.225-0.725-0.279-0.281-0.048-0.509-0.174-0.683-0.378v0c-0.268 0.051-0.459-0.041-0.573-0.277-0.113-0.236-0.264-0.404-0.453-0.504v0c-0.056-0.471-0.043-0.793 0.04-0.965 0.089-0.173 0.115-0.358 0.077-0.554v0c0.126-0.228 0.266-0.401 0.42-0.518 0.147-0.116 0.29-0.256 0.429-0.419v0c0.203-0.039 0.456-0.155 0.757-0.348v0c0.355-0.306 0.644-0.463 0.867-0.472 0.222-0.009 0.442-0.068 0.659-0.177v0c0.326 0.073 0.644 0.121 0.954 0.143 0.318 0.027 0.62 0.082 0.906 0.162v0c0.346 0.002 0.631-0.002 0.854-0.01 0.224-0.002 0.445 0 0.662 0.005 0.226 0.011 0.434 0.049 0.623 0.115 0.183 0.067 0.325 0.192 0.429 0.376v0c0.145 0.047 0.243 0.116 0.294 0.208 0.052 0.092 0.123 0.197 0.213 0.316v0c0.11 0.183 0.141 0.384 0.095 0.603-0.047 0.213-0.032 0.434 0.046 0.663v0c0.025 0.131 0.063 0.242 0.115 0.334 0.052 0.092 0.087 0.187 0.105 0.285v0c0.019 0.275-0.009 0.521-0.082 0.739-0.079 0.226-0.093 0.469-0.043 0.731v0c0.038 0.373 0.056 0.644 0.054 0.815-0.001 0.17 0.017 0.356 0.056 0.559v0c0.161 0.309 0.235 0.481 0.222 0.518-0.007 0.035-0.007 0.069-0.001 0.102v0c0.033 0.17 0.071 0.336 0.115 0.497 0.051 0.16 0.093 0.325 0.126 0.495v0c0.044 0.229 0.078 0.497 0.103 0.805 0.024 0.301 0.045 0.589 0.064 0.863v0c0.017 0.268-0.022 0.557-0.119 0.868-0.097 0.31-0.097 0.629 0 0.957v0c-0.173 0.339-0.19 0.64-0.05 0.906 0.133 0.266 0.26 0.544 0.383 0.833v0c0.058 0.125 0.095 0.264 0.111 0.416 0.008 0.148 0.022 0.274 0.042 0.379v0c0.116 0.249 0.153 0.446 0.113 0.59v0c0.019 0.275 0.089 0.553 0.21 0.835 0.123 0.289 0.135 0.527 0.036 0.716v0c0.064 0.157 0.093 0.308 0.086 0.452-0.008 0.137 0.017 0.268 0.076 0.393v0c0.083 0.432 0.256 0.786 0.519 1.061 0.257 0.277 0.496 0.55 0.717 0.82v0c0.15 0.073 0.314 0.116 0.493 0.129 0.174 0.021 0.368 0.062 0.583 0.122v0c0.117 0.045 0.215 0.095 0.293 0.148 0.078 0.053 0.154 0.093 0.227 0.119v0c0.072 0.02 0.173 0.018 0.304-0.007 0.138-0.026 0.255-0.049 0.354-0.068v0c0.366-0.036 0.694-0.116 0.982-0.239 0.281-0.128 0.585-0.241 0.913-0.338v0c0.21-0.142 0.44-0.288 0.69-0.437 0.243-0.148 0.499-0.248 0.767-0.3v0c0.302-0.37 0.528-0.627 0.677-0.771 0.141-0.149 0.225-0.332 0.252-0.547zM40.061 31.885l0.312 0.297c0.025 0.307-0.099 0.599-0.372 0.876-0.273 0.276-0.526 0.247-0.761-0.089v0c-0.208-0.34-0.187-0.619 0.064-0.837 0.25-0.218 0.503-0.3 0.757-0.247zM52.458 32.605l-0.021-0.108c-0.195-0.132-0.331-0.259-0.408-0.38-0.077-0.121-0.116-0.27-0.116-0.446v0c-0.031-0.164-0.052-0.323-0.061-0.477-0.008-0.148 0.047-0.27 0.164-0.367v0c-0.091-0.118-0.08-0.273 0.033-0.465 0.119-0.193 0.247-0.285 0.384-0.277v0c0.144-0.17 0.299-0.21 0.466-0.12 0.173 0.089 0.328 0.137 0.466 0.145v0c0.234 0.301 0.417 0.67 0.548 1.107 0.138 0.435 0.16 0.852 0.066 1.25v0c-0.491 0.128-0.822 0.208-0.992 0.241-0.164 0.031-0.34-0.003-0.529-0.103zM40.613 36.412v0c-0.501-0.311-0.747-0.709-0.738-1.192v0c0.014-0.281 0.136-0.494 0.366-0.641 0.23-0.146 0.449-0.205 0.659-0.177v0c0.078 0.053 0.194 0.16 0.346 0.321 0.153 0.161 0.262 0.32 0.326 0.477v0c0.078 0.229 0.083 0.435 0.016 0.618-0.067 0.183-0.156 0.352-0.268 0.51v0c-0.451 0.161-0.687 0.189-0.707 0.084zM35.118 45.091v0c-0.038-0.196-0.128-0.369-0.272-0.518-0.149-0.141-0.222-0.382-0.22-0.721v0c0.348-0.345 0.606-0.557 0.774-0.637 0.173-0.088 0.354-0.098 0.543-0.033v0c0.195 0.132 0.378 0.287 0.548 0.465 0.169 0.171 0.272 0.443 0.309 0.817v0c-0.088 0.424-0.3 0.668-0.634 0.732v0c-0.189 0.077-0.37 0.071-0.543-0.018-0.167-0.09-0.335-0.119-0.505-0.087z" fill="#ff5a00" data-fill-palette-color="primary"></path><path d="M64.731 24.829l0.143-0.157c0.292-0.181 0.531-0.275 0.717-0.284 0.186-0.009 0.379-0.034 0.577-0.077v0c0.107-0.005 0.209-0.036 0.306-0.095 0.098-0.051 0.196-0.096 0.294-0.133v0c0.335-0.122 0.61-0.222 0.827-0.299 0.21-0.077 0.431-0.204 0.663-0.382v0c0.135 0.027 0.245 0.022 0.33-0.015 0.078-0.037 0.15-0.074 0.215-0.11v0c0.069-0.103 0.158-0.191 0.268-0.263 0.116-0.079 0.206-0.17 0.267-0.273v0c0.192-0.176 0.363-0.301 0.513-0.374 0.15-0.074 0.254-0.215 0.311-0.425v0c0.265-0.179 0.474-0.416 0.627-0.711 0.153-0.294 0.379-0.532 0.678-0.712v0c0.376-0.525 0.583-0.942 0.622-1.25 0.039-0.302 0.084-0.625 0.135-0.968v0c-0.041-0.165-0.085-0.383-0.131-0.654-0.046-0.265-0.093-0.48-0.14-0.645v0c-0.211-0.23-0.384-0.509-0.52-0.836-0.129-0.334-0.336-0.612-0.62-0.832v0c-0.197 0.076-0.405 0.119-0.624 0.129-0.22 0.01-0.411 0.069-0.573 0.177v0c-0.265 0.179-0.459 0.382-0.582 0.608-0.123 0.226-0.262 0.459-0.417 0.7v0c-0.016 0.374-0.037 0.706-0.064 0.994-0.02 0.288-0.055 0.603-0.106 0.946v0c-0.072 0.611-0.168 1.052-0.288 1.325-0.12 0.279-0.313 0.509-0.579 0.688v0c-0.432 0.187-0.815 0.272-1.149 0.254-0.341-0.017-0.597-0.072-0.769-0.164v0c-0.097 0.071-0.196 0.086-0.298 0.044-0.109-0.048-0.214-0.07-0.313-0.066v0c-0.2 0.009-0.382 0.035-0.547 0.076-0.172 0.041-0.326 0.015-0.465-0.078v0c-0.204-0.091-0.32-0.205-0.346-0.344-0.02-0.133-0.066-0.264-0.139-0.394v0c-0.113-0.128-0.162-0.243-0.146-0.344 0.008-0.107-0.006-0.193-0.042-0.258v0c-0.041-0.165-0.089-0.33-0.143-0.494-0.061-0.171-0.08-0.357-0.056-0.558v0c0.054-0.269 0.073-0.441 0.056-0.513-0.023-0.066-0.036-0.132-0.04-0.199v0c0.029-0.101 0.083-0.221 0.164-0.358 0.08-0.137 0.133-0.293 0.158-0.468v0c0.053-0.303 0.126-0.506 0.222-0.611v0c0.055-0.243 0.074-0.407 0.057-0.493-0.024-0.079-0.02-0.153 0.01-0.22v0c0.158-0.181 0.252-0.322 0.28-0.424 0.029-0.101 0.095-0.171 0.2-0.21v0c0.244-0.485 0.485-0.9 0.723-1.245 0.237-0.351 0.538-0.619 0.903-0.803v0c0.063-0.07 0.133-0.143 0.21-0.22 0.083-0.071 0.157-0.141 0.221-0.211v0c0.208 0.024 0.35 0 0.427-0.07 0.083-0.071 0.209-0.093 0.377-0.067v0c0.159-0.174 0.39-0.295 0.694-0.363 0.297-0.061 0.528-0.198 0.691-0.413v0c0.165-0.041 0.356-0.1 0.573-0.177 0.217-0.077 0.405-0.186 0.565-0.327v0c0.166-0.008 0.326-0.015 0.48-0.022 0.153-0.007 0.298 0.019 0.434 0.08v0c0.24-0.011 0.392-0.028 0.458-0.052 0.066-0.016 0.133-0.01 0.201 0.021v0c0.236 0.056 0.495 0.17 0.777 0.344 0.275 0.174 0.534 0.289 0.777 0.344v0c0.306 0.119 0.519 0.176 0.639 0.17 0.12-0.006 0.15 0.06 0.089 0.196v0c0.339 0.118 0.553 0.201 0.642 0.251 0.082 0.05 0.197 0.138 0.343 0.264v0c0.073 0.13 0.171 0.236 0.295 0.316 0.117 0.075 0.213 0.197 0.288 0.367v0c0.074 0.163 0.159 0.326 0.253 0.489 0.095 0.169 0.196 0.335 0.303 0.496v0c0.307 0.152 0.507 0.413 0.598 0.783 0.084 0.363 0.215 0.677 0.394 0.943v0c-0.03 0.776-0.055 1.544-0.072 2.306-0.011 0.761-0.084 1.549-0.22 2.363v0c-0.219 0.317-0.353 0.647-0.404 0.99v0c-0.157 0.208-0.319 0.392-0.485 0.553-0.16 0.154-0.267 0.353-0.322 0.596v0c-0.13 0.073-0.226 0.161-0.288 0.263-0.069 0.103-0.151 0.191-0.248 0.262v0c-0.353 0.29-0.615 0.473-0.786 0.548-0.163 0.074-0.326 0.165-0.487 0.273v0c-0.365 0.191-0.77 0.37-1.216 0.537-0.452 0.175-0.805 0.421-1.057 0.74v0c-0.563 0.227-1.054 0.587-1.471 1.08v0c0.313 0.119 0.527 0.202 0.642 0.251 0.122 0.041 0.267 0.074 0.435 0.099v0c0.081 0.17 0.196 0.274 0.345 0.315 0.156 0.046 0.271 0.151 0.346 0.314v0c0.246 0.122 0.472 0.255 0.679 0.398 0.207 0.144 0.433 0.277 0.679 0.399v0c0.213 0.264 0.402 0.535 0.569 0.814 0.167 0.279 0.323 0.565 0.471 0.859v0c0.008 0.166 0.022 0.326 0.042 0.479 0.027 0.152 0.092 0.259 0.195 0.321v0c-0.062 0.103-0.056 0.22 0.017 0.35 0.073 0.137 0.079 0.257 0.017 0.359v0c0.106 0.129 0.148 0.32 0.127 0.575-0.021 0.255 0.022 0.463 0.129 0.625v0c-0.054 0.276-0.032 0.529 0.065 0.757 0.098 0.236 0.17 0.486 0.216 0.751v0c0.203 0.057 0.293 0.197 0.27 0.418-0.023 0.221-0.047 0.416-0.073 0.584v0c0.013 0.273 0.074 0.517 0.184 0.732 0.11 0.208 0.136 0.401 0.077 0.577v0c0.119 0.395 0.268 0.725 0.447 0.99 0.186 0.258 0.319 0.539 0.4 0.843v0c0.416 0.181 0.658 0.296 0.727 0.346 0.069 0.043 0.137 0.084 0.206 0.121v0c0.273 0.121 0.513 0.049 0.721-0.214 0.208-0.263 0.447-0.435 0.716-0.514v0c0.162-0.108 0.34-0.226 0.534-0.356 0.201-0.13 0.419-0.166 0.656-0.111v0c0.111 0.235 0.273 0.404 0.484 0.508 0.205 0.111 0.379 0.246 0.52 0.406v0c0.073 0.137 0.129 0.271 0.169 0.403 0.04 0.132 0.115 0.245 0.226 0.34v0c0.01 0.206 0.043 0.425 0.101 0.656 0.064 0.231-0.02 0.421-0.254 0.572v0c0.046 0.265 0.033 0.492-0.038 0.683-0.078 0.191-0.195 0.39-0.353 0.597v0c-0.03 0.068-0.077 0.147-0.139 0.237-0.063 0.09-0.129 0.17-0.199 0.239v0c-0.225 0.177-0.353 0.294-0.384 0.349-0.031 0.048-0.095 0.108-0.192 0.179v0c-0.4 0.159-0.647 0.291-0.742 0.395v0c-0.365 0.184-0.705 0.333-1.02 0.448-0.315 0.115-0.71 0.15-1.186 0.106v0c-0.406-0.114-0.654-0.213-0.745-0.296-0.09-0.076-0.184-0.078-0.281-0.007v0c-0.347-0.151-0.702-0.304-1.062-0.461-0.361-0.15-0.727-0.266-1.098-0.349v0c-0.654-0.143-1.168-0.289-1.542-0.438v0c-0.041-0.165-0.134-0.294-0.279-0.387-0.138-0.094-0.212-0.244-0.221-0.45v0c-0.139-0.127-0.272-0.248-0.397-0.362-0.119-0.108-0.167-0.283-0.145-0.524v0c-0.248-0.155-0.369-0.393-0.364-0.714-0.002-0.32-0.059-0.615-0.171-0.883v0c-0.174-0.159-0.357-0.294-0.55-0.405-0.192-0.104-0.36-0.273-0.504-0.507v0c-0.109-0.195-0.191-0.308-0.246-0.338-0.048-0.031-0.11-0.078-0.187-0.142v0c0.065-0.177 0.032-0.379-0.098-0.606-0.131-0.234-0.151-0.437-0.059-0.608v0c-0.354-0.424-0.48-0.992-0.38-1.704v0c-0.073-0.13-0.107-0.289-0.102-0.476 0.011-0.187 0.014-0.348 0.007-0.481v0c-0.081-0.303-0.128-0.598-0.141-0.884-0.013-0.286-0.043-0.562-0.089-0.827v0c-0.008-0.166-0.041-0.308-0.1-0.425-0.052-0.118-0.166-0.206-0.343-0.265v0c0.092-0.171 0.081-0.271-0.034-0.298-0.121-0.028-0.25-0.072-0.386-0.133v0c-0.041-0.172-0.123-0.278-0.245-0.318-0.122-0.048-0.187-0.155-0.196-0.322v0c-0.206-0.124-0.425-0.174-0.657-0.149-0.239 0.031-0.491 0.053-0.758 0.065v0c-0.341-0.017-0.554-0.007-0.639 0.03-0.078 0.037-0.151 0.057-0.218 0.061v0c-0.371 0.051-0.606 0.102-0.704 0.153-0.097 0.058-0.178 0.122-0.241 0.191v0c-0.267 0.146-0.582 0.331-0.945 0.555-0.357 0.217-0.493 0.51-0.409 0.88v0c0.146 0.26 0.288 0.454 0.427 0.581 0.146 0.133 0.273 0.264 0.379 0.392v0c0.089 0.47 0.15 0.931 0.185 1.383 0.041 0.452 0.105 0.879 0.19 1.283v0c0.077 0.23 0.213 0.41 0.406 0.541 0.193 0.124 0.294 0.303 0.305 0.537v0c0.138 0.094 0.214 0.294 0.229 0.6v0c0.139 0.127 0.214 0.3 0.224 0.52 0.01 0.22 0.072 0.394 0.185 0.522v0c-0.173 0.716-0.372 1.392-0.596 2.03-0.224 0.638-0.649 1.105-1.276 1.401v0c-0.059 0.17-0.146 0.3-0.262 0.393-0.109 0.092-0.215 0.174-0.319 0.245v0c-0.265 0.046-0.413 0.086-0.444 0.121-0.032 0.035-0.079 0.087-0.143 0.157v0c-0.275-0.021-0.519 0.034-0.733 0.164-0.214 0.123-0.457 0.142-0.729 0.054v0c-0.101-0.029-0.197-0.064-0.285-0.107-0.082-0.05-0.178-0.088-0.286-0.116v0c-0.203-0.057-0.388-0.082-0.554-0.074-0.173 0.008-0.345-0.017-0.514-0.077v0c-0.398 0.185-0.73 0.151-0.996-0.103-0.259-0.262-0.42-0.628-0.482-1.099v0c-0.192-0.532-0.284-0.924-0.275-1.178 0.001-0.254-0.021-0.513-0.066-0.778v0c-0.043-0.198-0.085-0.4-0.129-0.605-0.043-0.198-0.069-0.397-0.078-0.597v0c0.016-0.374 0.033-0.716 0.052-1.023 0.019-0.301 0.107-0.576 0.262-0.823v0c0.064-0.203 0.124-0.423 0.179-0.659 0.055-0.243 0.044-0.479-0.033-0.71v0c-0.117-0.368-0.172-0.619-0.165-0.753 0.014-0.134 0.018-0.251 0.013-0.351v0c-0.045-0.238-0.046-0.418-0.005-0.54 0.048-0.116 0.036-0.222-0.035-0.319v0c-0.041-0.172-0.036-0.402 0.018-0.691 0.053-0.289 0.026-0.515-0.082-0.677v0c0.072-0.611 0.099-1.246 0.081-1.906-0.011-0.654-0.013-1.267-0.006-1.842v0c-0.108-0.168-0.15-0.347-0.125-0.535 0.025-0.181-0.017-0.356-0.125-0.524v0c0.025-0.168 0.051-0.346 0.075-0.534 0.025-0.188 0.032-0.382 0.023-0.582v0c0.021-0.268 0.03-0.562 0.029-0.882 0.005-0.327 0-0.641-0.014-0.941v0c0.022-0.235 0.038-0.462 0.048-0.683 0.003-0.22-0.052-0.465-0.164-0.733v0c-0.043-0.198-0.067-0.364-0.074-0.497-0.007-0.14-0.077-0.223-0.212-0.25v0c-0.022-0.466-0.118-0.882-0.288-1.248-0.171-0.366-0.25-0.786-0.239-1.26v0c-0.012-0.266 0.003-0.511 0.045-0.733 0.036-0.222 0.033-0.432-0.009-0.631v0c-0.117-0.368-0.162-0.613-0.135-0.734 0.028-0.115 0.039-0.239 0.033-0.372v0c-0.005-0.107-0.033-0.209-0.084-0.306-0.058-0.097-0.058-0.231 0.001-0.401v0c-0.07-0.063-0.119-0.181-0.147-0.354-0.021-0.166 0-0.284 0.064-0.353v0c-0.185-0.398-0.292-0.884-0.319-1.457-0.027-0.573 0.052-1.03 0.236-1.372v0c-0.017-0.373 0.015-0.755 0.097-1.146 0.082-0.391 0.133-0.79 0.154-1.198v0c0.016-0.374 0-0.721-0.049-1.039-0.055-0.318-0.172-0.606-0.35-0.865v0c-0.114-0.302-0.187-0.569-0.218-0.8-0.025-0.239-0.075-0.457-0.151-0.654v0c-0.17-0.059-0.27-0.198-0.3-0.417-0.03-0.219-0.116-0.408-0.257-0.568v0c0.092-0.178 0.094-0.348 0.007-0.511-0.094-0.162-0.111-0.312-0.051-0.448v0c-0.068-0.03-0.155-0.113-0.262-0.248-0.106-0.129-0.112-0.245-0.017-0.35v0c-0.149-0.333-0.184-0.719-0.104-1.156 0.079-0.444 0.194-0.84 0.345-1.188v0c0.06-0.136 0.147-0.274 0.261-0.412 0.113-0.145 0.253-0.222 0.42-0.23v0c0.226-0.311 0.442-0.548 0.647-0.711 0.213-0.163 0.472-0.252 0.779-0.267v0c0.159-0.174 0.365-0.257 0.619-0.249 0.254 0.001 0.515-0.037 0.785-0.117v0c0.468 0.011 0.815 0.079 1.041 0.202 0.226 0.13 0.437 0.29 0.633 0.481 0.196 0.191 0.376 0.403 0.54 0.635 0.157 0.226 0.359 0.4 0.605 0.522v0c0.148 0.3 0.345 0.605 0.593 0.913 0.255 0.308 0.326 0.686 0.214 1.132v0c0.349 1.031 0.418 2.159 0.208 3.384v0c-0.049 0.369-0.109 0.599-0.178 0.689-0.063 0.09-0.108 0.185-0.137 0.287v0c-0.082 0.378-0.13 0.567-0.143 0.567-0.02 0.001-0.045 0.035-0.076 0.103v0c-0.076 0.511-0.122 0.807-0.138 0.888-0.009 0.087-0.011 0.197-0.005 0.33v0c0.008 0.166-0.019 0.305-0.081 0.415-0.069 0.103-0.116 0.222-0.143 0.357v0c0.014 0.3-0.011 0.615-0.076 0.944-0.072 0.324-0.168 0.622-0.288 0.895v0c0.011 0.233 0.005 0.454-0.019 0.661-0.024 0.201-0.065 0.387-0.125 0.557v0c0.027 0.573 0.037 1.146 0.031 1.72-0.006 0.574 0.102 1.11 0.325 1.607v0c0.036 0.065 0.084 0.15 0.142 0.254 0.051 0.098 0.096 0.196 0.134 0.294v0c0.006 0.133-0.004 0.267-0.031 0.402-0.027 0.141-0.054 0.279-0.081 0.414v0c0.008 0.166 0.031 0.316 0.071 0.447 0.04 0.138 0.029 0.259-0.033 0.362v0c0.051 0.371 0.043 0.785-0.022 1.242-0.059 0.457 0.019 0.833 0.233 1.131v0c-0.06 0.136-0.076 0.297-0.047 0.482 0.022 0.186 0.003 0.347-0.058 0.484v0c0.077 0.23 0.071 0.451-0.019 0.661-0.091 0.204-0.132 0.39-0.124 0.557v0c0.038 0.098 0.092 0.189 0.163 0.272 0.071 0.083 0.142 0.174 0.213 0.271v0c0.076 0.197 0.128 0.381 0.156 0.553 0.021 0.166 0.121 0.295 0.298 0.386v0c0.236 0.056 0.498 0.093 0.787 0.114 0.288 0.02 0.563-0.026 0.824-0.139v0c0.47-0.089 0.805-0.198 1.006-0.327 0.194-0.123 0.476-0.229 0.846-0.32zM65.153 3.696v0c0.305-0.048 0.502 0.037 0.593 0.252 0.097 0.209 0.199 0.398 0.306 0.567v0c0.081 0.297 0.07 0.567-0.032 0.812-0.109 0.239-0.191 0.479-0.246 0.722v0c-0.13 0.073-0.253 0.152-0.369 0.238-0.116 0.092-0.258 0.126-0.426 0.1v0c-0.133 0.006-0.26-0.004-0.382-0.032-0.121-0.028-0.248-0.022-0.38 0.018v0c-0.274-0.154-0.485-0.314-0.633-0.481v0c-0.114-0.295-0.152-0.604-0.113-0.926 0.032-0.322 0.094-0.638 0.185-0.95v0c0.221-0.277 0.358-0.417 0.411-0.42 0.047-0.002 0.051-0.056 0.013-0.16v0c0.197-0.076 0.39-0.075 0.581 0.003 0.191 0.078 0.355 0.164 0.492 0.257zM63.676 8.931v0c-0.073-0.13-0.135-0.254-0.187-0.372-0.059-0.117-0.109-0.259-0.15-0.423v0c0.059-0.17 0.128-0.326 0.208-0.471 0.074-0.137 0.195-0.259 0.363-0.367v0c0.17 0.059 0.303 0.059 0.401 0.001 0.098-0.051 0.199-0.029 0.303 0.066v0c0.213 0.124 0.295 0.39 0.248 0.799v0c-0.165 0.175-0.31 0.368-0.434 0.581-0.124 0.206-0.375 0.268-0.752 0.186zM74.905 28.107v0c-0.079-0.27-0.202-0.528-0.366-0.774-0.158-0.246-0.161-0.506-0.007-0.781v0c0.03-0.068 0.142-0.167 0.337-0.296 0.201-0.13 0.334-0.213 0.398-0.249v0c0.166-0.008 0.328 0.028 0.486 0.108 0.157 0.079 0.305 0.166 0.443 0.259v0c0.076 0.197 0.211 0.374 0.405 0.532 0.195 0.164 0.248 0.382 0.161 0.653v0c-0.037 0.068-0.184 0.196-0.443 0.381-0.259 0.179-0.508 0.274-0.748 0.285v0c-0.1 0.005-0.211-0.017-0.333-0.064-0.115-0.041-0.226-0.059-0.333-0.054zM65.3 31.64v0c0.252 0.395 0.39 0.626 0.413 0.691 0.016 0.066 0.029 0.202 0.039 0.409v0c-0.159 0.174-0.299 0.391-0.42 0.65-0.121 0.259-0.353 0.38-0.694 0.363v0c-0.181-0.299-0.465-0.589-0.852-0.871v0c-0.11-0.202-0.125-0.395-0.047-0.579 0.071-0.19 0.169-0.375 0.295-0.554v0c0.065-0.17 0.256-0.296 0.573-0.377 0.317-0.082 0.548 0.008 0.693 0.268zM65.551 34.871v0c0.073 0.13 0.096 0.272 0.07 0.427-0.026 0.155-0.035 0.315-0.027 0.482v0c-0.158 0.181-0.373 0.294-0.645 0.341-0.265 0.046-0.486-0.047-0.664-0.279v0c-0.129-0.468-0.037-0.792 0.275-0.974 0.312-0.181 0.642-0.18 0.991 0.003z" fill="#ff5a00" data-fill-palette-color="primary"></path><path d="M93.319 13.237l0.082-0.344c0.115-0.164 0.249-0.339 0.399-0.526 0.158-0.186 0.327-0.358 0.509-0.516v0c0.139-0.054 0.32-0.095 0.544-0.121 0.224-0.033 0.445-0.04 0.664-0.019 0.219 0.02 0.39 0.086 0.514 0.197 0.124 0.112 0.175 0.287 0.153 0.526v0c-0.097 0.326-0.238 0.591-0.424 0.795-0.186 0.204-0.39 0.383-0.611 0.537v0c-0.269 0.009-0.48 0.09-0.635 0.243-0.148 0.154-0.355 0.219-0.62 0.194v0c-0.456-0.209-0.648-0.531-0.575-0.966zM97.147 14.752v0c-0.16-0.149-0.222-0.315-0.185-0.499 0.03-0.178 0.103-0.322 0.22-0.432 0.111-0.11 0.26-0.174 0.449-0.19 0.182-0.017 0.354 0.049 0.514 0.198v0c0.12 0.52 0.048 0.828-0.215 0.924-0.263 0.096-0.524 0.096-0.783-0.001zM93.281 34.211v0c0.212-0.048 0.359-0.151 0.44-0.312 0.082-0.16 0.18-0.322 0.295-0.485v0c0.285-0.55 0.428-1.025 0.432-1.426 0.004-0.408 0.106-0.754 0.305-1.037v0c0.097-0.333 0.164-0.514 0.201-0.544v0c-0.066-0.381-0.083-0.737-0.053-1.069 0.031-0.339 0.08-0.692 0.147-1.061v0c-0.024-0.103-0.041-0.211-0.051-0.326-0.009-0.121 0.026-0.212 0.106-0.272v0c-0.115-0.285-0.161-0.621-0.139-1.007 0.015-0.387 0.102-0.674 0.259-0.86v0c-0.063-0.113-0.072-0.234-0.027-0.364 0.052-0.129 0.064-0.262 0.036-0.398v0c0.01-0.106 0.003-0.211-0.021-0.313-0.024-0.103-0.032-0.204-0.023-0.303v0c0.015-0.166 0.058-0.339 0.128-0.521 0.07-0.181 0.028-0.379-0.126-0.594v0c-0.011-0.242-0.009-0.456 0.008-0.642 0.016-0.179-0.019-0.343-0.106-0.491v0c0.076-0.462 0.085-0.749 0.029-0.861v0c-0.338-0.399-0.53-0.721-0.575-0.967-0.045-0.238-0.11-0.445-0.194-0.62v0c-0.063-0.414-0.102-0.716-0.118-0.905-0.016-0.189-0.073-0.338-0.17-0.447v0c0.127-0.223 0.186-0.462 0.176-0.717-0.017-0.256 0.071-0.479 0.262-0.669v0c0.072-0.06 0.171-0.118 0.297-0.173 0.119-0.056 0.233-0.129 0.341-0.22v0c0.218-0.114 0.391-0.209 0.518-0.284 0.121-0.076 0.304-0.136 0.549-0.181v0c0.124 0.112 0.265 0.141 0.424 0.089 0.152-0.053 0.313-0.055 0.482-0.006v0c0.166 0.015 0.312 0.062 0.439 0.14 0.127 0.079 0.291 0.144 0.494 0.196v0c0.162 0.055 0.307 0.122 0.434 0.2 0.133 0.079 0.316 0.129 0.549 0.151v0c0.121 0.145 0.247 0.223 0.38 0.235 0.139 0.013 0.288 0.076 0.444 0.192v0c0.217 0.187 0.341 0.403 0.373 0.646 0.032 0.237 0.066 0.528 0.101 0.873v0c0.129 0.42 0.183 0.669 0.163 0.748-0.028 0.084-0.012 0.163 0.048 0.235v0c-0.015 0.166-0.036 0.318-0.061 0.457-0.032 0.131-0.022 0.282 0.028 0.454v0c-0.094 0.299-0.19 0.612-0.286 0.938-0.097 0.333-0.175 0.63-0.232 0.892v0c-0.264 0.25-0.399 0.409-0.405 0.476v0c-0.223 0.247-0.338 0.404-0.345 0.47-0.007 0.073-0.046 0.14-0.118 0.2v0c-0.075 0.094-0.117 0.183-0.125 0.27-0.007 0.08-0.05 0.183-0.129 0.31v0c-0.173 0.359-0.272 0.665-0.295 0.917-0.023 0.252-0.078 0.492-0.166 0.717v0c0.084 0.55 0.093 1.11 0.028 1.68-0.072 0.569 0.044 1.055 0.348 1.458v0c-0.043 0.471-0.066 0.724-0.069 0.757v0c0.057 0.48 0.046 0.885-0.03 1.212-0.084 0.334-0.159 0.682-0.226 1.044v0c-0.016 0.173-0.072 0.311-0.169 0.416-0.091 0.112-0.125 0.236-0.104 0.372v0c0.011 0.242 0.115 0.389 0.311 0.44 0.203 0.052 0.346 0.166 0.431 0.341v0c0.027 0.069 0.041 0.174 0.042 0.315 0.008 0.135 0.021 0.286 0.038 0.455v0c0.063 0.414 0.097 0.876 0.105 1.385 0 0.509 0.046 1.002 0.136 1.479v0c0.03 0.11 0.064 0.217 0.101 0.321 0.044 0.104 0.095 0.209 0.152 0.315v0c0.054 0.139 0.108 0.288 0.16 0.446 0.052 0.159 0.107 0.291 0.165 0.397v0c0.157 0.182 0.298 0.405 0.42 0.671 0.13 0.266 0.182 0.535 0.157 0.807v0c-0.054 0.229-0.136 0.46-0.243 0.691-0.101 0.225-0.192 0.418-0.274 0.578v0c-0.291 0.181-0.556 0.371-0.795 0.57-0.238 0.192-0.544 0.308-0.916 0.348v0c-0.148 0.154-0.358 0.218-0.63 0.193-0.266-0.024-0.485-0.044-0.657-0.06v0c-0.223-0.121-0.433-0.244-0.629-0.369-0.19-0.118-0.344-0.266-0.462-0.443v0c-0.078-0.241-0.14-0.408-0.185-0.499-0.039-0.091-0.073-0.187-0.104-0.291v0c-0.045-0.238-0.058-0.467-0.038-0.686 0.02-0.219-0.045-0.419-0.196-0.601v0c0.004-0.408-0.024-0.658-0.082-0.75-0.059-0.086-0.063-0.23-0.011-0.433v0c-0.348 0.443-0.613 0.734-0.792 0.871-0.18 0.138-0.38 0.28-0.602 0.428v0c-0.711 0.377-1.344 0.573-1.901 0.589-0.564 0.015-1.072 0.086-1.526 0.212v0c-0.16-0.082-0.319-0.096-0.478-0.044-0.152 0.053-0.313 0.055-0.482 0.006v0c-0.172 0.051-0.427 0.061-0.766 0.031-0.332-0.03-0.652-0.043-0.961-0.038v0c-0.236 0.019-0.469 0.007-0.7-0.033-0.237-0.042-0.489-0.075-0.754-0.1v0c-0.139-0.013-0.284-0.006-0.434 0.021-0.156 0.019-0.298 0.006-0.428-0.039v0c-0.106-0.01-0.229-0.058-0.368-0.144-0.147-0.08-0.303-0.128-0.469-0.143v0c-0.167-0.082-0.314-0.153-0.443-0.212-0.128-0.065-0.217-0.184-0.268-0.355v0c-0.173-0.016-0.306-0.061-0.4-0.137-0.093-0.082-0.186-0.161-0.279-0.237v0c-0.051-0.172-0.176-0.311-0.374-0.416-0.192-0.098-0.313-0.236-0.364-0.414v0c-0.263-0.124-0.459-0.293-0.586-0.506-0.135-0.213-0.293-0.415-0.477-0.606v0c-0.04-0.372-0.083-0.737-0.131-1.096-0.054-0.366-0.15-0.707-0.288-1.021v0c0.082-0.16 0.115-0.344 0.101-0.553-0.015-0.202 0.018-0.383 0.099-0.543v0c-0.144-0.254-0.193-0.567-0.145-0.937 0.053-0.363 0.126-0.678 0.217-0.944v0c0.067-0.362 0.07-0.579 0.009-0.652v0c0.082-0.167 0.157-0.33 0.226-0.492 0.062-0.162 0.105-0.379 0.13-0.65v0c0.166-0.353 0.298-0.696 0.395-1.029 0.104-0.332 0.268-0.622 0.491-0.869v0c-0.024-0.103 0.012-0.21 0.11-0.321 0.091-0.112 0.107-0.221 0.05-0.327v0c0.072-0.06 0.14-0.138 0.202-0.232 0.056-0.095 0.12-0.173 0.192-0.234v0c0.086-0.133 0.15-0.247 0.192-0.344 0.042-0.097 0.066-0.178 0.072-0.244v0c0.048-0.163 0.061-0.306 0.039-0.429-0.022-0.123-0.029-0.234-0.019-0.333v0c0.01-0.474 0.007-0.813-0.008-1.015-0.021-0.209-0.024-0.397-0.009-0.563v0c0.043-0.471 0.099-0.794 0.169-0.968 0.07-0.181 0.042-0.348-0.085-0.5v0c0.064-0.329 0.087-0.588 0.071-0.777-0.016-0.189 0.015-0.347 0.094-0.473v0c-0.021-0.136-0.048-0.282-0.081-0.44-0.039-0.158-0.021-0.283 0.055-0.376v0c-0.051-0.172-0.086-0.346-0.103-0.522-0.018-0.169-0.069-0.341-0.154-0.516v0c-0.141-0.287-0.345-0.477-0.611-0.568-0.259-0.091-0.571-0.203-0.933-0.336v0c-0.151-0.181-0.357-0.337-0.62-0.468-0.256-0.124-0.44-0.308-0.552-0.553v0c-0.272-0.025-0.43-0.166-0.473-0.425-0.043-0.258-0.142-0.462-0.296-0.609v0c0.076-0.468 0.178-0.774 0.304-0.916 0.133-0.142 0.209-0.312 0.228-0.512v0c0.184-0.184 0.367-0.311 0.547-0.382 0.174-0.071 0.35-0.166 0.528-0.283v0c0.206 0.019 0.481-0.023 0.825-0.125v0c0.426-0.195 0.747-0.266 0.963-0.213 0.216 0.053 0.443 0.057 0.682 0.012v0c0.293 0.161 0.586 0.295 0.877 0.401 0.298 0.114 0.573 0.25 0.826 0.407v0c0.333 0.097 0.607 0.173 0.823 0.226 0.215 0.06 0.427 0.123 0.636 0.188 0.214 0.073 0.403 0.167 0.566 0.283 0.157 0.115 0.259 0.275 0.308 0.48v0c0.126 0.085 0.201 0.179 0.225 0.282 0.024 0.103 0.063 0.223 0.118 0.362v0c0.055 0.206 0.03 0.408-0.076 0.606-0.105 0.191-0.151 0.408-0.139 0.65v0c-0.012 0.133-0.006 0.25 0.018 0.353 0.024 0.103 0.032 0.204 0.022 0.303v0c-0.058 0.269-0.153 0.498-0.284 0.687-0.138 0.195-0.22 0.425-0.243 0.691v0c-0.067 0.369-0.125 0.635-0.174 0.797-0.048 0.163-0.082 0.347-0.101 0.553v0c0.069 0.341 0.092 0.527 0.07 0.559-0.016 0.032-0.026 0.065-0.029 0.098v0c-0.016 0.173-0.025 0.343-0.027 0.51 0.005 0.168-0.001 0.338-0.016 0.51v0c-0.021 0.232-0.062 0.5-0.124 0.802-0.06 0.296-0.12 0.578-0.177 0.848v0c-0.057 0.263-0.176 0.53-0.355 0.801-0.179 0.272-0.267 0.578-0.265 0.919v0c-0.26 0.278-0.359 0.563-0.299 0.857 0.054 0.293 0.1 0.595 0.138 0.906v0c0.021 0.136 0.018 0.279-0.009 0.431-0.033 0.144-0.055 0.269-0.064 0.376v0c0.042 0.272 0.024 0.471-0.055 0.597v0c-0.058 0.269-0.068 0.556-0.028 0.861 0.038 0.311-0.016 0.544-0.165 0.698v0c0.018 0.169 0.004 0.322-0.041 0.458-0.045 0.13-0.057 0.263-0.037 0.399v0c-0.04 0.438 0.028 0.826 0.205 1.163 0.17 0.337 0.324 0.666 0.462 0.986v0c0.124 0.112 0.27 0.199 0.438 0.261 0.161 0.068 0.337 0.161 0.527 0.279v0c0.1 0.076 0.18 0.15 0.241 0.223 0.06 0.072 0.122 0.132 0.185 0.178v0c0.063 0.039 0.161 0.065 0.294 0.077 0.139 0.013 0.259 0.024 0.358 0.032v0c0.362 0.067 0.699 0.081 1.011 0.043 0.305-0.046 0.629-0.07 0.97-0.072v0c0.241-0.078 0.503-0.155 0.784-0.23 0.275-0.075 0.548-0.101 0.821-0.076v0c0.393-0.272 0.681-0.457 0.864-0.553 0.177-0.104 0.308-0.256 0.393-0.457zM88.267 29.083l0.217 0.371c-0.061 0.302-0.261 0.549-0.6 0.739-0.339 0.19-0.574 0.091-0.706-0.296v0c-0.105-0.385-0.008-0.647 0.293-0.786 0.301-0.14 0.566-0.149 0.796-0.028zM99.98 33.206l0.01-0.11c-0.151-0.181-0.247-0.341-0.288-0.478-0.041-0.138-0.037-0.291 0.012-0.461v0c0.015-0.166 0.04-0.324 0.074-0.475 0.033-0.144 0.12-0.247 0.259-0.308v0c-0.054-0.139-0.001-0.285 0.16-0.437 0.168-0.152 0.317-0.205 0.447-0.16v0c0.185-0.124 0.346-0.119 0.48 0.014 0.142 0.133 0.278 0.223 0.408 0.268v0c0.142 0.354 0.215 0.759 0.22 1.215 0.012 0.456-0.082 0.863-0.282 1.22v0c-0.508-0.013-0.848-0.027-1.02-0.043-0.166-0.015-0.326-0.097-0.48-0.245zM87.544 33.586v0c-0.395-0.438-0.521-0.888-0.379-1.35v0c0.091-0.266 0.268-0.437 0.529-0.514 0.261-0.077 0.489-0.073 0.682 0.012v0c0.06 0.072 0.142 0.207 0.244 0.404 0.103 0.197 0.163 0.38 0.181 0.549v0c0.011 0.242-0.04 0.441-0.155 0.598-0.115 0.157-0.248 0.295-0.4 0.415v0c-0.478 0.03-0.712-0.008-0.702-0.114zM79.861 40.405v0c0.018-0.199-0.021-0.39-0.118-0.573-0.104-0.177-0.108-0.428-0.011-0.754v0c0.43-0.235 0.737-0.368 0.92-0.398 0.191-0.036 0.368 0.003 0.531 0.119v0c0.151 0.181 0.283 0.381 0.397 0.598 0.115 0.211 0.138 0.501 0.071 0.871v0c-0.202 0.383-0.473 0.559-0.811 0.528v0c-0.203 0.022-0.375-0.034-0.517-0.168-0.135-0.133-0.289-0.207-0.462-0.223z" fill="#ff5a00" data-fill-palette-color="primary"></path><path d="M106.7 8.669v0c0.077-0.433 0.151-0.694 0.221-0.784 0.064-0.09 0.11-0.217 0.139-0.381v0c0.096-0.159 0.141-0.314 0.134-0.464-0.006-0.157 0.063-0.256 0.206-0.299v0c0.141-0.185 0.263-0.336 0.365-0.452 0.109-0.116 0.281-0.17 0.516-0.162v0c0.424-0.06 0.781-0.091 1.073-0.093 0.292-0.002 0.611-0.006 0.957-0.012v0c0.334 0.026 0.54 0.106 0.617 0.242 0.084 0.137 0.169 0.247 0.256 0.33v0c0.21 0.342 0.317 0.558 0.322 0.646-0.002 0.088 0.046 0.14 0.144 0.158v0c-0.05 0.093-0.029 0.181 0.065 0.266 0.087 0.083 0.115 0.207 0.086 0.37v0c-0.077 0.433-0.116 0.745-0.116 0.935 0 0.19-0.047 0.361-0.142 0.513v0c-0.11 0.427-0.143 0.746-0.1 0.957 0.049 0.219 0.016 0.368-0.1 0.449v0c-0.184 0.272-0.31 0.541-0.378 0.807-0.067 0.259-0.189 0.511-0.369 0.757v0c-0.097 0.355-0.153 0.575-0.168 0.66-0.015 0.085-0.029 0.161-0.041 0.227v0c-0.209 0.41-0.292 0.686-0.249 0.829 0.042 0.143 0.026 0.326-0.047 0.55v0c-0.119 0.29-0.268 0.592-0.446 0.906-0.17 0.308-0.272 0.649-0.305 1.022v0c0.108 0.155 0.113 0.318 0.014 0.49-0.098 0.172-0.124 0.313-0.075 0.424v0c-0.101 0.185-0.149 0.363-0.146 0.532v0c-0.137 0.389-0.224 0.685-0.26 0.888-0.035 0.197-0.087 0.391-0.155 0.582v0c-0.308 0.358-0.567 0.596-0.777 0.715-0.21 0.112-0.379 0.244-0.508 0.397v0c-0.555 0.036-0.899 0.009-1.031-0.083-0.139-0.093-0.308-0.173-0.506-0.242v0c-0.074-0.155-0.144-0.33-0.211-0.525-0.066-0.201-0.139-0.36-0.219-0.476v0c-0.008-0.144-0.043-0.289-0.106-0.436-0.062-0.146-0.098-0.288-0.107-0.425v0c0.012-0.066 0.037-0.149 0.076-0.251 0.031-0.096 0.055-0.193 0.072-0.291v0c0.035-0.197 0.078-0.379 0.128-0.546 0.042-0.162 0.078-0.325 0.107-0.489v0c-0.018-0.281 0.008-0.517 0.076-0.708v0c-0.052-0.28-0.052-0.561-0.002-0.843 0.05-0.282 0.047-0.55-0.009-0.804v0c0.086-0.289 0.114-0.599 0.085-0.93-0.021-0.336 0.03-0.662 0.154-0.978v0c0.029-0.164 0.064-0.32 0.104-0.469 0.047-0.147 0.085-0.303 0.114-0.467v0c0.009-0.242 0.017-0.474 0.022-0.697 0.005-0.216 0.055-0.403 0.151-0.563v0c-0.019-0.274 0.023-0.565 0.125-0.871 0.109-0.306 0.19-0.609 0.244-0.911z" fill="#ff5a00" data-fill-palette-color="primary"></path><path d="M121.88 10.625v0c0.106-0.247 0.209-0.384 0.307-0.41 0.092-0.029 0.196-0.113 0.313-0.253v0c0.188-0.049 0.358 0 0.508 0.148 0.151 0.148 0.254 0.31 0.307 0.485 0.053 0.175 0.026 0.351-0.081 0.529-0.103 0.185-0.283 0.293-0.541 0.321v0c-0.235 0.209-0.448 0.286-0.64 0.231v0c-0.201-0.406-0.269-0.662-0.204-0.768 0.066-0.106 0.076-0.2 0.031-0.283zM116.142 12.591v0c0.074-0.256 0.157-0.444 0.247-0.564 0.082-0.115 0.191-0.274 0.327-0.477v0c0.332-0.188 0.63-0.4 0.893-0.636 0.265-0.242 0.629-0.383 1.091-0.422v0l0.812 0.288c-0.008 0.171-0.009 0.331-0.004 0.478 0.014 0.143 0.002 0.278-0.034 0.407v0c-0.091 0.432-0.321 0.83-0.692 1.194-0.37 0.365-0.765 0.541-1.185 0.53v0c-0.256-0.074-0.421-0.105-0.494-0.092-0.08 0.012-0.152 0.008-0.216-0.01v0c-0.16-0.047-0.287-0.146-0.381-0.299-0.095-0.152-0.216-0.285-0.364-0.397zM126.512 34.365v0c0.257-0.168 0.497-0.265 0.72-0.291 0.216-0.027 0.415 0.006 0.596 0.101v0c0.125 0.071 0.206 0.188 0.241 0.351 0.04 0.171 0.047 0.34 0.02 0.506-0.036 0.17-0.106 0.316-0.211 0.438-0.107 0.129-0.245 0.186-0.415 0.171v0c-0.39-0.114-0.645-0.205-0.763-0.274-0.125-0.071-0.222-0.169-0.29-0.293v0c-0.036-0.115-0.017-0.241 0.058-0.378 0.075-0.138 0.09-0.248 0.044-0.331zM128.453 37.825v0c0.209 0.38 0.255 0.71 0.139 0.988v0c-0.08 0.157-0.183 0.27-0.306 0.338-0.13 0.066-0.23 0.159-0.3 0.277v0c-0.222 0.047-0.402 0.189-0.54 0.426v0c-0.165 0.091-0.345 0.16-0.54 0.208-0.19 0.056-0.356 0.15-0.498 0.282v0c-1.032-0.439-1.397-1.056-1.097-1.851v0c0.175-0.123 0.293-0.29 0.354-0.501 0.061-0.211 0.179-0.378 0.354-0.501v0c0.149-0.13 0.405-0.222 0.768-0.276 0.369-0.052 0.682-0.041 0.938 0.033v0c0.166 0.048 0.281 0.144 0.343 0.288 0.064 0.137 0.193 0.233 0.385 0.289zM130.611 50.523v0c-0.312-0.264-0.472-0.443-0.479-0.535-0.008-0.093-0.03-0.196-0.066-0.311v0c0.12-0.173 0.229-0.333 0.326-0.478 0.093-0.153 0.211-0.296 0.354-0.428v0c0.222-0.144 0.524-0.215 0.906-0.215 0.386 0.008 0.673 0.182 0.859 0.52v0c0.045 0.083 0.079 0.207 0.1 0.373 0.023 0.159-0.006 0.318-0.086 0.475v0c-0.079 0.151-0.247 0.275-0.505 0.374-0.26 0.105-0.479 0.166-0.657 0.183v0c-0.115 0.036-0.241 0.041-0.379 0.015-0.134-0.018-0.258-0.009-0.373 0.027zM108.11 32.968v0c-0.097-0.382-0.131-0.684-0.102-0.904 0.023-0.222 0.098-0.419 0.224-0.591v0c0.076-0.262 0.117-0.594 0.123-0.996 0.012-0.399 0.129-0.671 0.352-0.814v0c0.086-0.294 0.123-0.495 0.112-0.602-0.004-0.105 0.017-0.238 0.064-0.398v0c0.03-0.102 0.077-0.203 0.14-0.303 0.072-0.104 0.122-0.204 0.15-0.3v0c0.066-0.37 0.07-0.598 0.012-0.684-0.065-0.088-0.088-0.164-0.069-0.229v0c0.27-0.449 0.475-0.82 0.615-1.112 0.141-0.292 0.297-0.556 0.469-0.79v0c0.28-0.127 0.486-0.383 0.62-0.768 0.125-0.38 0.298-0.715 0.521-1.004v0c0.063-0.336 0.167-0.597 0.311-0.785 0.143-0.181 0.227-0.375 0.253-0.582v0c0.097-0.215 0.184-0.453 0.261-0.716 0.074-0.256 0.157-0.479 0.246-0.668v0c0.147-0.027 0.235-0.15 0.264-0.371 0.028-0.214 0.104-0.358 0.23-0.433v0c0.074-0.256 0.132-0.395 0.174-0.418 0.041-0.023 0.071-0.066 0.09-0.13v0c0.031-0.345 0.165-0.65 0.401-0.914 0.237-0.264 0.398-0.544 0.484-0.838v0c0.28-0.127 0.532-0.279 0.757-0.457 0.233-0.182 0.408-0.412 0.524-0.691v0c0.526-0.375 0.916-0.692 1.172-0.95 0.249-0.261 0.524-0.49 0.825-0.687v0c0.309-0.084 0.544-0.224 0.706-0.42v0c0.619-0.313 1.122-0.528 1.51-0.644 0.382-0.118 0.768-0.242 1.159-0.37v0c0.268-0.207 0.536-0.351 0.803-0.433 0.271-0.074 0.543-0.161 0.816-0.263v0c0.153-0.025 0.291-0.009 0.413 0.047 0.124 0.05 0.221 0.016 0.291-0.103v0c0.828-0.078 1.473-0.182 1.934-0.312 0.459-0.123 0.989-0.188 1.587-0.194v0c0.625-0.096 1.269-0.138 1.932-0.125v0c0.57-0.147 1.151-0.151 1.743-0.014v0c0.079-0.151 0.242-0.2 0.491-0.148 0.247 0.058 0.461 0.075 0.642 0.051v0c0.434 0.203 0.738 0.399 0.912 0.588 0.174 0.189 0.37 0.385 0.589 0.588v0c0.027 0.147 0.078 0.269 0.153 0.367 0.084 0.094 0.144 0.198 0.18 0.313v0c0.109 0.101 0.209 0.175 0.3 0.223 0.092 0.041 0.155 0.135 0.188 0.284v0c0.192 0.056 0.368 0.107 0.528 0.153v0c0.204 0.517 0.433 0.935 0.688 1.252 0.259 0.325 0.531 0.634 0.814 0.924 0.282 0.297 0.558 0.589 0.828 0.877 0.264 0.285 0.505 0.602 0.724 0.95v0c-0.079 0.151-0.072 0.309 0.018 0.474 0.089 0.172 0.142 0.347 0.159 0.525v0c0.033 0.149 0.052 0.275 0.056 0.381 0.004 0.105 0.019 0.235 0.044 0.387v0c0.081 0.197 0.149 0.418 0.203 0.663 0.047 0.243 0.069 0.503 0.065 0.78v0c0.08 0.204 0.126 0.401 0.139 0.592 0.012 0.198 0.063 0.379 0.154 0.545v0c0.016 0.185 0.008 0.332-0.024 0.441-0.034 0.115-0.058 0.258-0.072 0.427v0c-0.006 0.283 0.019 0.53 0.076 0.74 0.063 0.213 0.126 0.45 0.189 0.712v0c0.322 0.587 0.542 1.036 0.66 1.348 0.122 0.32 0.217 0.664 0.283 1.03v0c0.102 0.245 0.212 0.499 0.33 0.762 0.12 0.257 0.173 0.526 0.161 0.807v0c0.118 0.312 0.192 0.545 0.224 0.701 0.027 0.147 0.058 0.277 0.094 0.392v0c0.054 0.293 0.109 0.521 0.166 0.683v0c0.115 0.346 0.16 0.737 0.137 1.175-0.021 0.431 0.043 0.807 0.192 1.129v0c-0.104 0.358-0.164 0.719-0.18 1.083-0.015 0.363-0.113 0.662-0.291 0.894v0c-0.023 0.341-0.068 0.65-0.135 0.929-0.061 0.281-0.15 0.564-0.268 0.849v0c-0.085 0.149-0.171 0.315-0.259 0.498-0.09 0.189-0.201 0.334-0.335 0.433v0c-0.201 0.573-0.422 0.974-0.662 1.203-0.24 0.229-0.371 0.5-0.393 0.813v0c-0.464 0.497-0.845 0.841-1.143 1.031v0c-0.146 0.381-0.369 0.66-0.671 0.837-0.295 0.178-0.573 0.42-0.836 0.725v0c-0.664 0.827-1.42 1.434-2.268 1.819v0c-0.321 0.365-0.572 0.618-0.752 0.76-0.18 0.142-0.356 0.327-0.526 0.555v0c-0.222 0.144-0.398 0.294-0.527 0.451-0.135 0.155-0.297 0.257-0.485 0.306v0c-0.201 0.191-0.401 0.328-0.598 0.409-0.197 0.081-0.409 0.211-0.634 0.389v0c-0.613 0.176-1.181 0.372-1.702 0.588-0.521 0.216-1.052 0.406-1.592 0.568v0c-0.225 0.177-0.499 0.271-0.822 0.281-0.318 0.019-0.596 0.08-0.834 0.185v0c-0.533 0.018-1.02-0.002-1.461-0.061-0.441-0.059-0.856-0.089-1.245-0.091v0c-0.183-0.088-0.322-0.122-0.418-0.101-0.092 0.029-0.16 0.002-0.206-0.081v0c-0.602 0.137-1.281 0.166-2.034 0.085v0c-0.16-0.047-0.316-0.047-0.469-0.001-0.152 0.046-0.267 0.023-0.344-0.069v0c-0.204 0.08-0.418 0.111-0.642 0.095-0.226-0.01-0.451-0.048-0.675-0.113v0c-0.22 0.04-0.464 0.032-0.732-0.026-0.26-0.062-0.468-0.133-0.626-0.213v0c-0.367 0.067-0.757 0.023-1.169-0.132-0.413-0.155-0.699-0.377-0.859-0.666v0c-0.541-0.192-0.93-0.552-1.165-1.079v0c-0.301-0.157-0.454-0.323-0.459-0.498 0.004-0.179-0.087-0.261-0.272-0.246v0c-0.145-0.216-0.301-0.435-0.465-0.656-0.165-0.221-0.319-0.443-0.463-0.666v0c-0.12-0.208-0.184-0.383-0.191-0.524-0.014-0.143-0.101-0.238-0.261-0.284v0c-0.042-0.332-0.119-0.559-0.229-0.681-0.106-0.114-0.134-0.254-0.085-0.421v0c-0.081-0.197-0.158-0.386-0.231-0.567-0.068-0.172-0.145-0.361-0.231-0.567v0c-0.123-0.175-0.225-0.301-0.306-0.381-0.083-0.073-0.138-0.182-0.164-0.329v0c-0.182-0.233-0.315-0.421-0.399-0.563-0.075-0.147-0.117-0.326-0.125-0.537v0c-0.09-0.311-0.131-0.562-0.124-0.754 0.001-0.194-0.007-0.381-0.025-0.56v0c-0.168-0.257-0.259-0.457-0.273-0.6-0.012-0.149-0.068-0.291-0.168-0.424v0c0.018-0.418 0.01-0.691-0.022-0.819-0.03-0.134-0.043-0.269-0.038-0.406v0c0.016-0.176 0.056-0.348 0.119-0.518 0.071-0.174 0.114-0.345 0.129-0.514v0c-0.006-0.217-0.028-0.418-0.065-0.602-0.037-0.184-0.042-0.38-0.016-0.588v0c0.001-0.243-0.016-0.387-0.052-0.432-0.042-0.047-0.054-0.102-0.034-0.166zM131.382 21.243v0c-0.35-0.491-0.619-1.01-0.807-1.558-0.196-0.543-0.409-1.077-0.638-1.602v0c-0.291-0.335-0.559-0.572-0.803-0.712-0.237-0.139-0.473-0.294-0.708-0.467v0c-0.159-0.289-0.479-0.452-0.962-0.488v0c-0.188 0.049-0.376 0.099-0.564 0.148-0.194 0.048-0.396 0.131-0.604 0.252v0c-0.211 0.008-0.429 0.031-0.655 0.069-0.22 0.04-0.406 0.142-0.558 0.307v0c-0.077-0.092-0.184-0.095-0.32-0.01-0.13 0.087-0.27 0.092-0.421 0.013v0c-0.207 0.113-0.498 0.15-0.875 0.11v0c-0.207 0.113-0.432 0.197-0.677 0.251-0.245 0.054-0.47 0.137-0.677 0.25v0c-0.176-0.016-0.31 0.014-0.402 0.092-0.092 0.077-0.224 0.112-0.394 0.104v0c-0.346 0.212-0.699 0.397-1.058 0.556-0.365 0.158-0.673 0.429-0.924 0.815v0c-0.304 0.328-0.524 0.511-0.66 0.547-0.134 0.03-0.251 0.1-0.352 0.21v0c-0.111 0.141-0.221 0.283-0.332 0.424-0.112 0.148-0.261 0.299-0.444 0.454v0c-0.101 0.109-0.208 0.203-0.322 0.282-0.111 0.072-0.19 0.188-0.236 0.347v0c-0.115 0.036-0.198 0.109-0.252 0.219-0.046 0.112-0.122 0.169-0.227 0.173v0c-0.166 0.333-0.336 0.676-0.508 1.029-0.18 0.357-0.208 0.693-0.084 1.007v0c-0.174 0.477-0.395 0.965-0.665 1.462-0.272 0.504-0.456 1.041-0.552 1.61v0c-0.244 0.839-0.444 1.527-0.601 2.065-0.155 0.531-0.235 1.06-0.242 1.585v0c0.014 0.428 0.019 0.675 0.013 0.743 0.001 0.07 0.008 0.141 0.021 0.215v0c-0.012 0.281-0.06 0.566-0.145 0.853-0.086 0.294-0.088 0.54-0.006 0.738v0c-0.079 0.151-0.11 0.319-0.094 0.504 0.024 0.181-0.008 0.362-0.096 0.544v0c0.174 0.474 0.264 0.799 0.268 0.974-0.004 0.179 0.019 0.363 0.069 0.551v0c0.052 0.085 0.098 0.178 0.137 0.28 0.042 0.095 0.084 0.188 0.128 0.277v0c0.027 0.147 0.04 0.279 0.041 0.397-0.002 0.125 0.052 0.237 0.162 0.339v0c-0.022 0.313 0.025 0.643 0.139 0.988 0.106 0.35 0.123 0.709 0.051 1.077v0c0.115 0.346 0.206 0.581 0.274 0.705 0.068 0.124 0.11 0.278 0.126 0.463v0c0.307 0.402 0.559 0.739 0.757 1.012 0.207 0.268 0.463 0.534 0.768 0.796v0c0.217-0.006 0.417 0.069 0.601 0.227 0.175 0.162 0.332 0.315 0.47 0.46v0c0.627-0.102 1.148-0.152 1.564-0.149 0.424-0.002 0.839-0.03 1.244-0.086v0c0.314-0.124 0.547-0.198 0.7-0.223v0c0.284-0.022 0.582-0.056 0.895-0.105 0.314-0.054 0.633-0.087 0.955-0.097v0c0.766 0.015 1.433-0.021 1.999-0.105 0.571-0.077 1.134-0.104 1.69-0.082v0c0.147-0.027 0.29-0.065 0.429-0.114 0.133-0.052 0.292-0.085 0.477-0.101v0c0.235-0.209 0.481-0.402 0.74-0.576 0.264-0.166 0.53-0.353 0.798-0.559v0c0.129-0.205 0.279-0.387 0.451-0.546 0.167-0.167 0.34-0.311 0.521-0.432v0c0.296-0.303 0.54-0.627 0.732-0.974 0.185-0.349 0.366-0.709 0.543-1.081v0c0.265-0.409 0.399-0.738 0.402-0.988-0.005-0.245 0.052-0.44 0.17-0.585v0c0.092-0.077 0.159-0.19 0.203-0.337 0.041-0.141 0.103-0.234 0.185-0.279v0c0.016-0.176 0.08-0.334 0.191-0.476 0.111-0.141 0.217-0.27 0.32-0.386v0c-0.036-0.115-0.013-0.219 0.07-0.313 0.078-0.102 0.131-0.201 0.16-0.297v0c0.09-0.189 0.138-0.415 0.144-0.677 0.007-0.262-0.003-0.466-0.03-0.612v0c-0.141-0.111-0.251-0.247-0.329-0.409-0.078-0.162-0.204-0.302-0.377-0.422v0c-0.135-0.394-0.151-0.769-0.046-1.128v0c0.14-0.098 0.215-0.226 0.225-0.382 0.003-0.152 0.028-0.311 0.077-0.478v0c0.093-0.32 0.18-0.583 0.26-0.788 0.081-0.206 0.108-0.455 0.082-0.747v0c-0.022-0.284-0.063-0.56-0.123-0.827-0.063-0.261-0.154-0.496-0.274-0.705v0c-0.016-0.185-0.048-0.337-0.097-0.455-0.055-0.12-0.092-0.27-0.109-0.449v0c0.008-0.386-0.035-0.691-0.13-0.912-0.097-0.216-0.153-0.416-0.169-0.601v0c0.001-0.243 0.019-0.484 0.054-0.724 0.033-0.233 0.03-0.46-0.01-0.68v0c-0.067-0.27-0.153-0.489-0.257-0.658-0.11-0.171-0.143-0.392-0.098-0.664v0c-0.216-0.236-0.347-0.396-0.392-0.478z" fill="#ff5a00" data-fill-palette-color="primary"></path></g></svg></g></svg></g></svg></g></svg></g><g></g></svg></g></svg></g><defs></defs></svg><rect width="395.52" height="142.20896339052075" fill="none" stroke="none" visibility="hidden"></rect></g></svg></g></svg>